<svg width="610" height="308" viewBox="0 0 610 308" fill="none" xmlns="http://www.w3.org/2000/svg">
<path d="M252.865 220.816C255.46 218.603 257.523 215.877 258.911 212.825C260.3 209.774 260.98 206.47 260.906 203.142C260.832 199.813 260.005 196.54 258.481 193.548C256.958 190.556 254.776 187.917 252.084 185.812C249.393 183.708 246.257 182.188 242.893 181.359C239.529 180.529 236.017 180.409 232.6 181.007C229.183 181.605 225.942 182.907 223.101 184.823C220.26 186.738 217.887 189.222 216.145 192.102L216.893 192.518C218.572 189.741 220.859 187.347 223.598 185.5C226.337 183.653 229.461 182.398 232.755 181.822C236.049 181.245 239.435 181.361 242.677 182.161C245.92 182.961 248.943 184.426 251.538 186.454C254.132 188.483 256.236 191.027 257.705 193.912C259.173 196.796 259.97 199.951 260.042 203.159C260.113 206.368 259.457 209.553 258.119 212.494C256.78 215.436 254.792 218.064 252.29 220.197L252.865 220.816Z" fill="black"/>
<path d="M214.518 211.906C215.683 214.803 217.449 217.444 219.708 219.67C221.968 221.896 224.674 223.66 227.664 224.857L227.997 224.093C225.115 222.939 222.506 221.238 220.328 219.093C218.15 216.947 216.448 214.401 215.324 211.608L214.518 211.906Z" fill="black"/>
<path d="M14.5 294.5C68.6177 227.188 107 223 155 196M380.5 95.5C481.403 71.6656 522.296 51.5326 566 3" stroke="white" stroke-width="3" stroke-linecap="round"/>
<path d="M13 294C8.78309 137.278 25.3044 85.4459 125 127M370.5 175.999C561.582 295.4 270 -48.5005 595 8.49941" stroke="#8FB0A9" stroke-width="3" stroke-linecap="round"/>
<path d="M15 295.5C36.0422 299.68 105 305.5 133 300.5C161 295.5 175.483 254.292 189 225.5M383.5 131C531.696 87.2065 455 -4.50024 524 8.49976" stroke="#D76735" stroke-width="3" stroke-linecap="round"/>
<ellipse cx="303" cy="202.699" rx="22" ry="21.5" fill="#FBD266"/>
<ellipse cx="237" cy="203.499" rx="22" ry="21.5" fill="#FBD266"/>
<path d="M309.976 180.652C306.748 179.699 303.346 179.41 299.993 179.804C296.639 180.197 293.411 181.265 290.518 182.937C287.625 184.609 285.133 186.847 283.204 189.505C281.276 192.164 279.955 195.182 279.328 198.363C278.701 201.545 278.782 204.817 279.565 207.966C280.349 211.115 281.817 214.071 283.874 216.639C285.931 219.207 288.531 221.33 291.503 222.868C294.476 224.407 297.753 225.328 301.122 225.569L301.187 224.743C297.939 224.51 294.779 223.623 291.914 222.14C289.049 220.656 286.543 218.61 284.56 216.134C282.577 213.659 281.161 210.81 280.406 207.774C279.651 204.738 279.573 201.584 280.178 198.517C280.782 195.45 282.055 192.541 283.914 189.978C285.773 187.415 288.175 185.258 290.964 183.646C293.753 182.035 296.865 181.005 300.098 180.626C303.33 180.246 306.61 180.525 309.722 181.444L309.976 180.652Z" fill="black"/>
<path d="M321.298 217.415C323.411 215.001 324.984 212.196 325.92 209.175C326.855 206.155 327.133 202.982 326.735 199.854C326.338 196.726 325.274 193.709 323.61 190.992C321.946 188.274 319.717 185.913 317.061 184.055L316.551 184.725C319.112 186.515 321.26 188.791 322.865 191.411C324.469 194.031 325.494 196.939 325.877 199.954C326.26 202.969 325.993 206.028 325.091 208.94C324.189 211.852 322.673 214.555 320.636 216.882L321.298 217.415Z" fill="black"/>
<path d="M195.911 196.633C200.466 196.51 201.968 195.558 201.411 191.133C205.57 193.131 207.4 193.284 209.411 191.133C208.188 185.691 209.284 184.24 213.911 184.133C218.52 185.237 219.24 183.984 219.911 181.133C225.59 183.747 227.882 183.024 230.911 179.133C235.073 181.934 237.345 182.996 240.411 176.633C245.588 178.549 248.419 179.483 249.411 173.133C257.902 176.375 260.192 174.715 262.411 169.133C273.046 172.277 276.854 170.075 280.411 160.133C283.792 164.491 285.644 165.651 288.911 166.633C294.53 168.108 296.487 166.956 298.911 163.133" stroke="black" stroke-width="2"/>
<path d="M251.911 264.633C254.911 271.133 284.411 273.133 286.411 262.133M234.411 256.633C231.462 254.562 232.143 253.734 235.911 252.633" stroke="black"/>
<path d="M245.411 259.633C254.282 260.236 259.2 259.785 267.911 258.133C267.911 258.133 267.911 258.133 268.911 258.133C269.911 258.133 288.411 260.633 293.411 258.633" stroke="black"/>
<path d="M320.911 234.133L319.411 236.133C328.798 256.471 349.911 188.633 333.911 200.133M329.411 217.633C329.367 223.226 328.642 225.261 325.911 226.633M240.411 257.133C248.374 264.229 260.367 244.921 267.411 250.633" stroke="black"/>
<path d="M296.911 256.134C287.911 260.134 275.411 245.134 267.911 250.634L267.411 251.634L266.911 250.134" stroke="black"/>
<path d="M195.911 196.634C201.328 195.334 204.031 195.643 207.911 199.134C207.421 243.447 262.597 237.854 265.911 205.634C269.07 202.581 270.98 203.508 274.411 205.634C275.45 236.277 332.297 244.717 331.911 199.134C333.819 197.214 335.032 196.338 338.911 197.134M209.911 190.634C210.491 188.376 211.175 187.157 213.411 185.134M249.411 176.634C259.357 182.983 262.724 188.009 265.411 197.134C268.803 195.337 270.762 195.164 274.411 197.134C282.077 168.366 318.216 166.314 330.411 192.134C335.09 189.611 336.719 191.985 339.911 195.134M319.411 236.134C315.564 281.156 277.661 316.56 234.411 283.134" stroke="black"/>
<path d="M191.911 225.634C189.807 226.053 189.219 225.272 188.911 222.634C173.925 224.544 170.97 220.164 169.911 208.134C157.836 209.11 157.715 204.212 157.911 195.134C141.451 190.588 139.298 185.198 146.911 171.134C133.144 162.696 131.242 156.182 137.411 141.634C121.845 132.451 124.464 115.79 140.411 111.634C127.953 103.905 132.211 86.3393 148.411 87.1336C140.666 74.4671 149.061 65.417 158.911 66.6337C151.902 49.8254 168.578 36.346 183.411 46.1337C185.535 34.6899 189.294 32.3598 199.411 33.6337C205.873 18.738 218.919 16.8954 232.411 25.6337C235.72 16.9717 238.953 15.2849 247.911 19.6337C255.157 7.53872 267.776 6.06008 278.411 19.6337C287.319 11.2554 292.303 11.9453 298.911 23.1337C311.627 17.2198 317.699 21.2155 318.411 32.1337C330.68 29.5733 334.806 31.7415 334.911 45.1337C347.336 35.9195 359.821 47.4745 351.411 55.1337C361.41 52.7173 366.881 59.0936 362.411 69.6337C374.634 70.4757 379.914 78.5818 371.911 90.6336C378.15 91.1153 380.241 92.5904 379.411 99.1336C392.176 106.807 393.29 123.582 376.911 129.634C383.877 135.761 384.485 139.247 377.411 145.634C385.379 150.559 386.621 157.121 379.411 163.134C379.707 171.588 376.825 173.926 367.911 175.134C373.511 189.372 371.859 194.259 360.911 197.634C363.117 206.829 358.18 210.744 349.911 207.134C349.545 217.458 346.314 220.119 337.411 221.634" stroke="black" stroke-width="4"/>
<path d="M16 293.999C59.0017 194.929 86.2653 162.908 143.5 169.999M370 176.499C488.5 218.499 567.797 166.638 592 271.999" stroke="#9F81D0" stroke-width="3" stroke-linecap="round"/>
<path d="M313 189L321.66 201H304.34L313 189Z" fill="#F2D8B3"/>
<path d="M296.9 212.57L310.895 207.762L305.873 224.338L296.9 212.57Z" fill="#FBD266"/>
<path d="M308.968 199.549L322.998 194.841L317.857 211.381L308.968 199.549Z" fill="#FF7E7E"/>
<path d="M298.705 209.044L300.13 223.774L285.174 215.038L298.705 209.044Z" fill="#D76735"/>
<path d="M305.755 209.314L320.047 213.152L306.615 224.088L305.755 209.314Z" fill="#D76735"/>
<path d="M295.062 202.931L284.16 212.938L282.129 195.737L295.062 202.931Z" fill="#8FB0A9"/>
<path d="M283.968 191.549L297.998 186.841L292.857 203.381L283.968 191.549Z" fill="#D76735"/>
<path d="M307.822 196.745L308.524 181.963L322.072 192.754L307.822 196.745Z" fill="#FBD266"/>
<path d="M301.968 202.549L315.998 197.841L310.857 214.381L301.968 202.549Z" fill="#8FB0A9"/>
<path d="M300 195L308.66 207H291.34L300 195Z" fill="#D76735"/>
<path d="M300.857 195.675L286.133 197.15L294.818 182.165L300.857 195.675Z" fill="#8FB0A9"/>
<path d="M307 181L315.66 193H298.34L307 181Z" fill="#D76735"/>
<path d="M282.382 196.905L295.464 189.986L293.07 207.14L282.382 196.905Z" fill="#FBD266"/>
<path d="M299 187L307.66 199H290.34L299 187Z" fill="#8FB0A9"/>
<path d="M309.957 206.184L324.404 202.979L317.551 218.886L309.957 206.184Z" fill="#D76735"/>
<path d="M311.009 202.01L321.024 191.116L324.504 208.084L311.009 202.01Z" fill="#8FB0A9"/>
<path d="M302 201L310.66 213H293.34L302 201Z" fill="#D76735"/>
<path d="M312.5 184L315.531 188.5H309.469L312.5 184Z" fill="#D76735"/>
<path d="M291.5 199L294.531 203.5H288.469L291.5 199Z" fill="#D76735"/>
<path d="M311.982 217.016L316.969 219.154L311.874 222.44L311.982 217.016Z" fill="#D76735"/>
<path d="M305.796 216.069L304.303 221.285L300.401 216.646L305.796 216.069Z" fill="#D76735"/>
<path d="M320.5 191.004L315.996 194.03L316.004 187.967L320.5 191.004Z" fill="#D76735"/>
<path d="M297.617 184.172L302.779 182.501L301.105 188.328L297.617 184.172Z" fill="#D76735"/>
<path d="M302 201L310.66 213H293.34L302 201Z" fill="#D76735"/>
<path d="M290.992 184.946L292.693 190.098L286.857 188.459L290.992 184.946Z" fill="#D76735"/>
<path d="M287.817 205.317L289.221 208.091L286.992 210.073L284.21 208.524L284.72 205.585L287.817 205.317Z" fill="#9F81D0"/>
<path d="M302.817 199.317L304.221 202.091L301.992 204.073L299.21 202.524L299.72 199.585L302.817 199.317Z" fill="#9F81D0"/>
<path d="M297.817 190.317L299.221 193.091L296.992 195.073L294.21 193.524L294.72 190.585L297.817 190.317Z" fill="#9F81D0"/>
<path d="M322.817 207.317L324.221 210.091L321.992 212.073L319.21 210.524L319.72 207.585L322.817 207.317Z" fill="#9F81D0"/>
<path d="M323.817 198.317L325.221 201.091L322.992 203.073L320.21 201.524L320.72 198.585L323.817 198.317Z" fill="#9F81D0"/>
<path d="M310.817 183.317L312.221 186.091L309.992 188.073L307.21 186.524L307.72 183.585L310.817 183.317Z" fill="#9F81D0"/>
<path d="M301.817 212.317L303.221 215.091L300.992 217.073L298.21 215.524L298.72 212.585L301.817 212.317Z" fill="#9F81D0"/>
<path d="M289.817 192.317L291.221 195.091L288.992 197.073L286.21 195.524L286.72 192.585L289.817 192.317Z" fill="#9F81D0"/>
<path d="M311.817 213.317L313.221 216.091L310.992 218.073L308.21 216.524L308.72 213.585L311.817 213.317Z" fill="#9F81D0"/>
<path d="M314.817 192.317L316.221 195.091L313.992 197.073L311.21 195.524L311.72 192.585L314.817 192.317Z" fill="#9F81D0"/>
<path d="M294.817 205.317L296.221 208.091L293.992 210.073L291.21 208.524L291.72 205.585L294.817 205.317Z" fill="#9F81D0"/>
<path d="M290.5 207L293.531 211.5H287.469L290.5 207Z" fill="#8FB0A9"/>
<path d="M287.5 194L290.531 198.5H284.469L287.5 194Z" fill="#8FB0A9"/>
<path d="M284.5 202L287.531 206.5H281.469L284.5 202Z" fill="#8FB0A9"/>
<path d="M312.5 216L315.531 220.5H309.469L312.5 216Z" fill="#8FB0A9"/>
<path d="M307.729 210.992L306.414 216.256L302.357 211.751L307.729 210.992Z" fill="#8FB0A9"/>
<path d="M319.203 187.861L314.526 190.611L314.896 184.56L319.203 187.861Z" fill="#8FB0A9"/>
<path d="M296.092 200.211L301.512 200.462L297.896 205.328L296.092 200.211Z" fill="#8FB0A9"/>
<path d="M292.5 215L295.531 219.5H289.469L292.5 215Z" fill="#8FB0A9"/>
<path d="M313.23 193.549L313.112 198.974L308.159 195.478L313.23 193.549Z" fill="#8FB0A9"/>
<path d="M316.76 213.444L316.901 208.02L321.839 211.537L316.76 213.444Z" fill="#8FB0A9"/>
<path d="M299.5 218L302.531 222.5H296.469L299.5 218Z" fill="#8FB0A9"/>
<path d="M299.793 204.533L304.846 206.509L299.861 209.959L299.793 204.533Z" fill="#8FB0A9"/>
<path d="M307.946 183.043L305.532 187.902L302.536 182.632L307.946 183.043Z" fill="#8FB0A9"/>
<path d="M296.817 212.317L298.221 215.091L295.992 217.073L293.21 215.524L293.72 212.585L296.817 212.317Z" fill="white"/>
<path d="M299.817 182.317L301.221 185.091L298.992 187.073L296.21 185.524L296.72 182.585L299.817 182.317Z" fill="white"/>
<path d="M317.817 196.317L319.221 199.091L316.992 201.073L314.21 199.524L314.72 196.585L317.817 196.317Z" fill="white"/>
<path d="M305.817 193.317L307.221 196.091L304.992 198.073L302.21 196.524L302.72 193.585L305.817 193.317Z" fill="white"/>
<path d="M314.817 206.317L316.221 209.091L313.992 211.073L311.21 209.524L311.72 206.585L314.817 206.317Z" fill="white"/>
<path d="M285.817 197.317L287.221 200.091L284.992 202.073L282.21 200.524L282.72 197.585L285.817 197.317Z" fill="white"/>
<path d="M247 190L255.66 202H238.34L247 190Z" fill="#F2D8B3"/>
<path d="M230.9 213.57L244.895 208.762L239.873 225.338L230.9 213.57Z" fill="#FBD266"/>
<path d="M242.968 200.549L256.998 195.841L251.857 212.381L242.968 200.549Z" fill="#FF7E7E"/>
<path d="M232.705 210.044L234.13 224.774L219.174 216.038L232.705 210.044Z" fill="#D76735"/>
<path d="M239.755 210.314L254.047 214.152L240.615 225.088L239.755 210.314Z" fill="#D76735"/>
<path d="M229.062 203.931L218.16 213.938L216.129 196.737L229.062 203.931Z" fill="#8FB0A9"/>
<path d="M217.968 192.549L231.998 187.841L226.857 204.381L217.968 192.549Z" fill="#D76735"/>
<path d="M241.822 197.745L242.524 182.963L256.072 193.754L241.822 197.745Z" fill="#FBD266"/>
<path d="M235.968 203.549L249.998 198.841L244.857 215.381L235.968 203.549Z" fill="#8FB0A9"/>
<path d="M234 196L242.66 208H225.34L234 196Z" fill="#D76735"/>
<path d="M234.857 196.675L220.133 198.15L228.818 183.165L234.857 196.675Z" fill="#8FB0A9"/>
<path d="M241 182L249.66 194H232.34L241 182Z" fill="#D76735"/>
<path d="M216.382 197.905L229.464 190.986L227.07 208.14L216.382 197.905Z" fill="#FBD266"/>
<path d="M233 188L241.66 200H224.34L233 188Z" fill="#8FB0A9"/>
<path d="M243.957 207.184L258.404 203.979L251.551 219.886L243.957 207.184Z" fill="#D76735"/>
<path d="M245.009 203.01L255.024 192.116L258.504 209.084L245.009 203.01Z" fill="#8FB0A9"/>
<path d="M236 202L244.66 214H227.34L236 202Z" fill="#D76735"/>
<path d="M246.5 185L249.531 189.5H243.469L246.5 185Z" fill="#D76735"/>
<path d="M225.5 200L228.531 204.5H222.469L225.5 200Z" fill="#D76735"/>
<path d="M245.982 218.016L250.969 220.154L245.874 223.44L245.982 218.016Z" fill="#D76735"/>
<path d="M239.796 217.069L238.303 222.285L234.401 217.646L239.796 217.069Z" fill="#D76735"/>
<path d="M254.5 192.004L249.996 195.03L250.004 188.967L254.5 192.004Z" fill="#D76735"/>
<path d="M231.617 185.172L236.779 183.501L235.105 189.328L231.617 185.172Z" fill="#D76735"/>
<path d="M236 202L244.66 214H227.34L236 202Z" fill="#D76735"/>
<path d="M224.992 185.946L226.693 191.098L220.857 189.459L224.992 185.946Z" fill="#D76735"/>
<path d="M221.817 206.317L223.221 209.091L220.992 211.073L218.21 209.524L218.72 206.585L221.817 206.317Z" fill="#9F81D0"/>
<path d="M236.817 200.317L238.221 203.091L235.992 205.073L233.21 203.524L233.72 200.585L236.817 200.317Z" fill="#9F81D0"/>
<path d="M231.817 191.317L233.221 194.091L230.992 196.073L228.21 194.524L228.72 191.585L231.817 191.317Z" fill="#9F81D0"/>
<path d="M256.817 208.317L258.221 211.091L255.992 213.073L253.21 211.524L253.72 208.585L256.817 208.317Z" fill="#9F81D0"/>
<path d="M257.817 199.317L259.221 202.091L256.992 204.073L254.21 202.524L254.72 199.585L257.817 199.317Z" fill="#9F81D0"/>
<path d="M244.817 184.317L246.221 187.091L243.992 189.073L241.21 187.524L241.72 184.585L244.817 184.317Z" fill="#9F81D0"/>
<path d="M235.817 213.317L237.221 216.091L234.992 218.073L232.21 216.524L232.72 213.585L235.817 213.317Z" fill="#9F81D0"/>
<path d="M223.817 193.317L225.221 196.091L222.992 198.073L220.21 196.524L220.72 193.585L223.817 193.317Z" fill="#9F81D0"/>
<path d="M245.817 214.317L247.221 217.091L244.992 219.073L242.21 217.524L242.72 214.585L245.817 214.317Z" fill="#9F81D0"/>
<path d="M248.817 193.317L250.221 196.091L247.992 198.073L245.21 196.524L245.72 193.585L248.817 193.317Z" fill="#9F81D0"/>
<path d="M228.817 206.317L230.221 209.091L227.992 211.073L225.21 209.524L225.72 206.585L228.817 206.317Z" fill="#9F81D0"/>
<path d="M224.5 208L227.531 212.5H221.469L224.5 208Z" fill="#8FB0A9"/>
<path d="M221.5 195L224.531 199.5H218.469L221.5 195Z" fill="#8FB0A9"/>
<path d="M218.5 203L221.531 207.5H215.469L218.5 203Z" fill="#8FB0A9"/>
<path d="M246.5 217L249.531 221.5H243.469L246.5 217Z" fill="#8FB0A9"/>
<path d="M241.729 211.992L240.414 217.256L236.357 212.751L241.729 211.992Z" fill="#8FB0A9"/>
<path d="M253.203 188.861L248.526 191.611L248.896 185.56L253.203 188.861Z" fill="#8FB0A9"/>
<path d="M230.092 201.211L235.512 201.462L231.896 206.328L230.092 201.211Z" fill="#8FB0A9"/>
<path d="M226.5 216L229.531 220.5H223.469L226.5 216Z" fill="#8FB0A9"/>
<path d="M247.23 194.549L247.112 199.974L242.159 196.478L247.23 194.549Z" fill="#8FB0A9"/>
<path d="M250.76 214.444L250.901 209.02L255.839 212.537L250.76 214.444Z" fill="#8FB0A9"/>
<path d="M233.5 219L236.531 223.5H230.469L233.5 219Z" fill="#8FB0A9"/>
<path d="M233.793 205.533L238.846 207.509L233.861 210.959L233.793 205.533Z" fill="#8FB0A9"/>
<path d="M241.946 184.043L239.532 188.902L236.536 183.632L241.946 184.043Z" fill="#8FB0A9"/>
<path d="M230.817 213.317L232.221 216.091L229.992 218.073L227.21 216.524L227.72 213.585L230.817 213.317Z" fill="white"/>
<path d="M233.817 183.317L235.221 186.091L232.992 188.073L230.21 186.524L230.72 183.585L233.817 183.317Z" fill="white"/>
<path d="M251.817 197.317L253.221 200.091L250.992 202.073L248.21 200.524L248.72 197.585L251.817 197.317Z" fill="white"/>
<path d="M239.817 194.317L241.221 197.091L238.992 199.073L236.21 197.524L236.72 194.585L239.817 194.317Z" fill="white"/>
<path d="M248.817 207.317L250.221 210.091L247.992 212.073L245.21 210.524L245.72 207.585L248.817 207.317Z" fill="white"/>
<path d="M219.817 198.317L221.221 201.091L218.992 203.073L216.21 201.524L216.72 198.585L219.817 198.317Z" fill="white"/>
<path d="M12.5 292.5C99.3655 286.574 122.888 271.256 144 234C174.656 151.199 199.583 129.086 247.5 100.5C431.924 -21.6372 471.305 26.3622 585.5 31.9999" stroke="#FBD266" stroke-width="3" stroke-linecap="round"/>
<path d="M14 293C150.5 -82 420.5 219.5 605 5.5" stroke="#F2D8B3" stroke-width="3" stroke-linecap="round"/>
<circle cx="15.5" cy="292.5" r="6.5" fill="white"/>
</svg>
